Coordinates
version=1
nRows=12
nColumns=24
inDegrees=yes

Units are S.I. units (second, meters, Newtons, ...)
Angles are in degrees.

endheader
time	pelvis_tilt	pelvis_list	pelvis_rotation	pelvis_tx	pelvis_ty	pelvis_tz	hip_flexion_r	hip_adduction_r	hip_rotation_r	knee_angle_r	ankle_angle_r	subtalar_angle_r	mtp_angle_r	hip_flexion_l	hip_adduction_l	hip_rotation_l	knee_angle_l	ankle_angle_l	subtalar_angle_l	mtp_angle_l	lumbar_extension	lumbar_bending	lumbar_rotation
      4.28500000	     -4.61235229	     -7.95589735	      3.41553573	     -0.03787940	     -0.01954254	     -0.12447653	     13.47083183	     16.50117723	      8.06077908	    -19.72385688	     -0.02036150	     -6.27379981	      8.73630346	     31.77846506	     -8.63841719	     -4.63758232	    -68.97477614	     -8.18551069	    -10.97363582	    -19.73262054	      4.81286029	      5.81874710	     -1.90376352
      4.29000000	     -4.58496356	     -7.77741597	      3.18603110	     -0.03200607	     -0.01877595	     -0.12407826	     12.60386763	     16.39323345	      8.54322093	    -19.18772221	      0.16705697	     -6.25862293	      8.62266902	     32.40210170	     -8.46273620	     -4.91180220	    -68.16262116	     -7.47094945	    -10.74378912	    -19.42654815	      4.74942076	      5.65970609	     -1.50773852
      4.29500000	     -4.55233307	     -7.59836316	      2.93871804	     -0.02616340	     -0.01804121	     -0.12363800	     11.73748014	     16.27599011	      9.02057126	    -18.65143909	      0.31998884	     -6.20840977	      8.53634493	     32.98245135	     -8.30469857	     -5.20081458	    -67.26185830	     -6.76215619	    -10.38393660	    -18.97520806	      4.67258647	      5.49880354	     -1.08474376
      4.30000000	     -4.53418025	     -7.41111653	      2.69104513	     -0.02033767	     -0.01740111	     -0.12318303	     10.90141182	     16.13820138	      9.47618122	    -18.13069069	      0.49781768	     -6.15107154	      8.51666011	     33.54734275	     -8.15283833	     -5.51344956	    -66.28186468	     -6.05230867	     -9.91968547	    -18.38779142	      4.61018830	      5.32829114	     -0.67749237
      4.30500000	     -4.52524776	     -7.21917573	      2.43865625	     -0.01453326	     -0.01683047	     -0.12271742	     10.08890484	     15.98525558	      9.91161504	    -17.62122460	      0.67338376	     -6.08504959	      8.54765751	     34.08870250	     -8.00826852	     -5.84098501	    -65.22032803	     -5.35502590	     -9.34868225	    -17.68910484	      4.55520902	      5.15072388	     -0.27413125
      4.31000000	     -4.41326160	     -7.00331387	      2.25018677	     -0.00871841	     -0.01617375	     -0.12227267	      9.12465881	     15.80420794	     10.43312021	    -17.03045512	      0.70861344	     -6.26773263	      8.53519225	     34.46518395	     -7.83279374	     -6.14055372	    -63.98213624	     -5.09991690	     -8.89998486	    -15.73030030	      4.39308829	      4.93540764	      0.03267776
      4.31500000	     -4.53416674	     -6.82380722	      1.97747473	     -0.00300780	     -0.01589300	     -0.12184874	      8.52746719	     15.63387006	     10.74367915	    -16.61448296	      0.95331535	     -6.05855458	      8.69376630	     35.10549738	     -7.70864025	     -6.48571843	    -62.80469414	     -4.33956311	     -8.11482317	    -15.15812335	      4.47026383	      4.78001641	      0.47426455
      4.32000000	     -4.55330928	     -6.63211794	      1.74081692	      0.00272231	     -0.01554740	     -0.12146995	      7.79824200	     15.44815016	     11.10411060	    -16.15958453	      1.13418319	     -5.97529432	      8.79530379	     35.58959594	     -7.57540735	     -6.83549097	    -61.52938247	     -3.62329724	     -7.26374936	    -14.49534334	      4.43902020	      4.60995135	      0.85814523
      4.32500000	     -4.55674409	     -6.44010228	      1.53574005	      0.00843165	     -0.01524205	     -0.12116980	      7.05849955	     15.25352855	     11.47235180	    -15.70572693	      1.27464228	     -5.97363102	      8.87198622	     36.02735464	     -7.42628525	     -7.16897598	    -60.17246863	     -2.98768443	     -6.38580051	    -13.74843733	      4.39056196	      4.44999723	      1.23220568
      4.33000000	     -4.58020736	     -6.25305929	      1.33362212	      0.01413836	     -0.01504002	     -0.12087367	      6.36107770	     15.06228866	     11.80485204	    -15.27892840	      1.42992546	     -5.99709280	      8.94672328	     36.45407343	     -7.29458658	     -7.52841282	    -58.75067357	     -2.35310790	     -5.45444764	    -13.03892334	      4.36782881	      4.28388601	      1.55948838
      4.33500000	     -4.61069303	     -6.07198830	      1.15750821	      0.01982733	     -0.01492240	     -0.12065493	      5.69271224	     14.87029057	     12.11102175	    -14.88199614	      1.58879009	     -6.05220141	      9.00771559	     36.85803423	     -7.15239649	     -7.87676960	    -57.26040859	     -1.73715321	     -4.50428485	    -12.38882536	      4.34927507	      4.12955592	      1.85446560
      4.34000000	     -4.55619369	     -5.85132746	      1.01419283	      0.02549940	     -0.01471464	     -0.12047190	      4.91938976	     14.64040809	     12.47740418	    -14.45583004	      1.59651523	     -6.36241150	      8.99602053	     37.10027587	     -6.95649028	     -8.23245498	    -55.60980661	     -1.40250387	     -3.69465298	    -11.21185939	      4.23396007	      3.92700210	      2.13835624
